<?xml version="1.0" encoding="UTF-8" standalone="no"?>
<!DOCTYPE svg PUBLIC "-//W3C//DTD SVG 1.1//EN" "http://www.w3.org/Graphics/SVG/1.1/DTD/svg11.dtd">
<svg width="100%" height="100%" viewBox="0 0 1280 1280" version="1.1" xmlns="http://www.w3.org/2000/svg" xmlns:xlink="http://www.w3.org/1999/xlink" xml:space="preserve" xmlns:serif="http://www.serif.com/" style="fill-rule:evenodd;clip-rule:evenodd;stroke-linejoin:round;stroke-miterlimit:2;">
    <path d="M582.41,1038.19L582.41,778.399C582.835,774.092 582.633,772.89 584.313,768.832C586.826,762.766 591.777,757.815 597.843,755.302C601.901,753.622 603.103,753.824 607.41,753.399C663.566,753.399 719.722,753.574 775.877,753.399C791.16,753.256 805.625,741.999 809.433,727.231C812.352,715.908 809.102,703.176 801.076,694.636C794.63,687.777 785.367,683.733 775.877,683.645C641.899,683.227 507.92,683.644 373.942,683.644C335.699,683.525 299.486,655.342 291.07,616.931C286.386,595.552 290.372,572.403 301.944,553.864C317.018,529.714 344.819,514.161 373.435,513.89C551.038,513.33 728.644,514.475 906.247,513.887C920.934,513.748 934.938,503.516 939.332,489.392C943.002,477.591 939.82,463.918 931.269,454.95C924.767,448.132 915.518,444.163 905.98,444.133L607.41,444.133C603.103,443.708 601.901,443.91 597.843,442.23C591.777,439.717 586.826,434.766 584.313,428.7C582.633,424.642 582.835,423.44 582.41,419.133L582.41,176.125C582.835,171.818 582.633,170.615 584.313,166.558C586.826,160.491 591.777,155.541 597.843,153.028C601.901,151.347 603.103,151.549 607.41,151.125C609.036,151.285 610.662,151.445 612.288,151.605C613.851,152.079 615.468,152.403 616.978,153.028C623.044,155.541 627.995,160.491 630.507,166.558C632.188,170.615 631.986,171.818 632.41,176.125L632.41,394.133L906.059,394.133C934.664,394.223 962.57,409.629 977.783,433.673C994.747,460.485 995.091,496.991 977.783,524.347C962.655,548.257 935.361,563.614 906.567,563.887C728.962,564.474 551.355,563.329 373.751,563.889C359.225,564.027 345.298,574.115 340.798,587.978C336.957,599.807 340.056,613.598 348.565,622.65C355.01,629.507 364.247,633.555 373.762,633.643C507.741,634.061 641.721,633.644 775.7,633.644C811.962,633.757 846.477,658.889 857.017,694.329C866.963,727.769 854.114,766.857 824.892,787.663C810.654,797.801 793.297,803.345 775.7,803.399L632.41,803.399L632.41,1038.19L682.381,982.057C686.787,977.306 692.868,974.181 699.35,973.738C701.33,973.603 701.782,973.695 702.408,973.716C714.475,974.618 724.911,984.7 725.956,996.467C726.559,1003.25 724.144,1010.13 719.728,1015.3L626.084,1120.5C623.445,1123.34 620.187,1125.51 616.651,1126.9C612.211,1128.73 607.286,1129.34 602.533,1128.39C601.734,1128.24 600.945,1128.04 600.17,1127.79C599.479,1127.59 598.796,1127.36 598.124,1127.09L598.074,1127.07L598.065,1127.06L597.859,1126.98L597.85,1126.98L597.799,1126.95C595.287,1125.91 592.95,1124.45 590.907,1122.65C590.141,1121.98 589.432,1121.25 588.737,1120.5L495.093,1015.3C488.805,1007.94 487.079,997.246 490.889,988.599C494.872,979.56 504.739,973.621 514.452,973.689C520.598,973.983 526.576,976.349 531.022,980.59C531.679,981.216 531.823,981.392 532.439,982.057L582.41,1038.19Z" style="fill:rgb(207,207,207);"/>
</svg>
