<?xml version="1.0" encoding="UTF-8" standalone="no"?>
<!DOCTYPE svg PUBLIC "-//W3C//DTD SVG 1.1//EN" "http://www.w3.org/Graphics/SVG/1.1/DTD/svg11.dtd">
<svg width="100%" height="100%" viewBox="0 0 24 24" version="1.1" xmlns="http://www.w3.org/2000/svg" xmlns:xlink="http://www.w3.org/1999/xlink" xml:space="preserve" xmlns:serif="http://www.serif.com/" style="fill-rule:evenodd;clip-rule:evenodd;stroke-linejoin:round;stroke-miterlimit:2;">
    <g transform="matrix(1,0,0,1,-1,0)">
        <path d="M9.71,6.29C9.522,6.101 9.267,5.994 9,5.994C8.733,5.994 8.478,6.101 8.29,6.29L3.29,11.29C3.101,11.478 2.994,11.733 2.994,12C2.994,12.267 3.101,12.522 3.29,12.71L8.29,17.71C8.478,17.899 8.733,18.006 9,18.006C9.267,18.006 9.522,17.899 9.71,17.71C9.899,17.522 10.006,17.267 10.006,17C10.006,16.733 9.899,16.478 9.71,16.29L5.41,12L9.71,7.71C9.899,7.522 10.006,7.267 10.006,7C10.006,6.733 9.899,6.478 9.71,6.29ZM22.71,11.29L17.71,6.29C17.522,6.102 17.266,5.996 17,5.996C16.449,5.996 15.996,6.449 15.996,7C15.996,7.266 16.102,7.522 16.29,7.71L20.59,12L16.29,16.29C16.101,16.478 15.994,16.733 15.994,17C15.994,17.267 16.101,17.522 16.29,17.71C16.478,17.899 16.733,18.006 17,18.006C17.267,18.006 17.522,17.899 17.71,17.71L22.71,12.71C22.899,12.522 23.006,12.267 23.006,12C23.006,11.733 22.899,11.478 22.71,11.29Z" style="fill:white;fill-rule:nonzero;stroke:white;stroke-width:1px;"/>
    </g>
</svg>
