<?xml version="1.0" encoding="UTF-8" standalone="no"?>
<!DOCTYPE svg PUBLIC "-//W3C//DTD SVG 1.1//EN" "http://www.w3.org/Graphics/SVG/1.1/DTD/svg11.dtd">
<svg width="100%" height="100%" viewBox="0 0 513 513" version="1.1" xmlns="http://www.w3.org/2000/svg" xmlns:xlink="http://www.w3.org/1999/xlink" xml:space="preserve" xmlns:serif="http://www.serif.com/" style="fill-rule:evenodd;clip-rule:evenodd;stroke-linejoin:round;stroke-miterlimit:2;">
    <path d="M255.944,15.93C114.618,15.902 0.028,130.446 0,271.772C-0.018,364.089 49.689,449.26 130.077,494.65C132.533,496.065 135.457,496.427 138.184,495.653C140.892,494.897 143.192,493.103 144.584,490.661L223.517,351.162C226.412,346.036 224.608,339.534 219.485,336.634C183.531,316.44 170.755,270.922 190.95,234.968C211.145,199.014 256.662,186.238 292.616,206.433C328.57,226.628 341.346,272.145 321.151,308.099C314.439,320.05 304.566,329.922 292.616,336.634C287.493,339.534 285.689,346.036 288.584,351.162L367.304,490.661C368.692,493.111 370.993,494.914 373.704,495.674C374.633,495.943 375.595,496.08 376.563,496.079C378.403,496.077 380.211,495.599 381.811,494.692C504.898,425.248 548.384,269.17 478.94,146.082C433.548,65.629 348.319,15.884 255.944,15.93Z" style="fill:rgb(141,141,141);fill-rule:nonzero;"/>
</svg>
