<?xml version="1.0" encoding="UTF-8" standalone="no"?>
<!DOCTYPE svg PUBLIC "-//W3C//DTD SVG 1.1//EN" "http://www.w3.org/Graphics/SVG/1.1/DTD/svg11.dtd">
<svg width="100%" height="100%" viewBox="0 0 100 100" version="1.1" xmlns="http://www.w3.org/2000/svg" xmlns:xlink="http://www.w3.org/1999/xlink" xml:space="preserve" xmlns:serif="http://www.serif.com/" style="fill-rule:evenodd;clip-rule:evenodd;stroke-linejoin:round;stroke-miterlimit:2;">
    <rect id="Artboard1" x="0" y="0" width="100" height="100" style="fill:none;"/>
    <g id="Artboard11" serif:id="Artboard1">
        <g id="g3870" transform="matrix(1,0,0,1,0,-952.362)">
            <g id="path3782" transform="matrix(0.153613,0,0,0.153613,110.828,981.126)">
                <path d="M-103.036,138.244C-103.036,298.948 -235.275,431.188 -395.98,431.188C-556.684,431.188 -688.924,298.948 -688.924,138.244C-688.924,-22.461 -556.684,-154.701 -395.98,-154.701C-235.275,-154.701 -103.036,-22.461 -103.036,138.244Z" style="fill:rgb(141,141,141);fill-rule:nonzero;"/>
            </g>
            <g id="g3055" transform="matrix(0.727812,0,0,0.727812,13.665,284.848)">
                <clipPath id="_clip1">
                    <path d="M111.753,985.85C111.753,1019.77 83.842,1047.68 49.924,1047.68C16.005,1047.68 -11.906,1019.77 -11.906,985.85C-11.906,951.932 16.005,924.021 49.924,924.021C83.842,924.021 111.753,951.932 111.753,985.85Z"/>
                </clipPath>
                <g clip-path="url(#_clip1)">
                    <g id="g3970" transform="matrix(2.26772,0,0,2.63978,-63.4213,-1569.86)">
                        <g id="g3931" transform="matrix(0.805031,0,0,0.988765,13.5597,19.3067)">
                            <path id="path3911" d="M45.344,948.719C45.189,948.737 45.046,948.833 44.969,948.969L33.002,969.36C32.949,969.433 32.977,969.785 32.969,969.875L32.969,969.969C32.969,970.23 33.207,970.469 33.469,970.469L57.094,970.469C57.434,970.451 57.972,969.393 57.801,969.098L45.844,948.969C45.747,948.797 45.54,948.693 45.344,948.719L45.344,948.719ZM45.406,950.25L56.219,969.469L34.281,969.469L45.406,950.25Z" style="fill:rgb(190,190,190);fill-rule:nonzero;"/>
                            <g id="path3917" transform="matrix(1,0,0,1,0,952.362)">
                                <path d="M40.28,17.167L45.268,10.917L50.255,17.167L40.28,17.167Z" style="fill:rgb(60,60,60);fill-rule:nonzero;"/>
                            </g>
                            <g id="path3919" transform="matrix(1,0,0,1,0,952.362)">
                                <path d="M40.28,17.167L37.754,10.917L34.219,17.167L40.28,17.167Z" style="fill:rgb(190,190,190);fill-rule:nonzero;"/>
                            </g>
                            <path id="path3921" d="M50.255,969.53L52.78,963.279L56.316,969.53L50.255,969.53Z" style="fill:rgb(190,190,190);fill-rule:nonzero;"/>
                            <g id="path3925" transform="matrix(1,0,0,1,0,952.362)">
                                <path d="M42.742,2.394L45.268,-3.125L48.014,2.394L42.742,2.394Z" style="fill-rule:nonzero;"/>
                            </g>
                            <path id="rect3857" d="M34.715,969.447L34.715,969.728L34.576,969.728L34.576,982.996L56.66,982.996L56.66,969.728L56.347,969.728L56.347,969.447L34.715,969.447Z" style="fill:rgb(60,60,60);fill-rule:nonzero;"/>
                        </g>
                        <g id="path3942" transform="matrix(1.21483,0,0,1.81094,-21.5818,946.155)">
                            <path d="M61.493,9.276C61.493,9.589 60.391,9.844 59.031,9.844C57.671,9.844 56.569,9.589 56.569,9.276C56.569,8.962 57.671,8.707 59.031,8.707C60.391,8.707 61.493,8.962 61.493,9.276Z" style="fill-rule:nonzero;"/>
                        </g>
                    </g>
                    <rect id="rect3029" x="59.286" y="1010.58" width="13.571" height="36.429" style="fill:rgb(190,190,190);"/>
                    <rect id="rect3027" x="27.5" y="1010.94" width="13.571" height="36.061" style="fill:rgb(190,190,190);"/>
                    <g id="path3031" transform="matrix(1,0,0,1,0,952.362)">
                        <path d="M44.447,20.072L43.563,19.314L49.876,4.162L50.255,3.152L56.947,19.44L54.422,20.45L44.447,20.072Z" style="fill:rgb(70,70,70);fill-rule:nonzero;"/>
                    </g>
                    <g id="path3033" transform="matrix(1,0,0,1,0,952.362)">
                        <path d="M40.911,58.836L36.113,43.179L45.204,21.208L50.76,18.683L55.306,21.334L63.64,42.926L59.094,59.089L49.876,42.926L41.416,59.089L40.911,58.836Z" style="fill:rgb(245,245,245);fill-rule:nonzero;"/>
                    </g>
                    <g id="path3035" transform="matrix(2.7549,0,0,4.78048,-112.356,927.886)">
                        <path d="M61.493,9.276C61.493,9.589 60.391,9.844 59.031,9.844C57.671,9.844 56.569,9.589 56.569,9.276C56.569,8.962 57.671,8.707 59.031,8.707C60.391,8.707 61.493,8.962 61.493,9.276Z" style="fill:rgb(70,70,70);fill-rule:nonzero;"/>
                    </g>
                </g>
            </g>
        </g>
    </g>
</svg>
