<?xml version="1.0" encoding="UTF-8" standalone="no"?>
<!DOCTYPE svg PUBLIC "-//W3C//DTD SVG 1.1//EN" "http://www.w3.org/Graphics/SVG/1.1/DTD/svg11.dtd">
<svg width="100%" height="100%" viewBox="0 0 24 24" version="1.1" xmlns="http://www.w3.org/2000/svg" xmlns:xlink="http://www.w3.org/1999/xlink" xml:space="preserve" xmlns:serif="http://www.serif.com/" style="fill-rule:evenodd;clip-rule:evenodd;stroke-linecap:round;stroke-linejoin:round;">
    <g transform="matrix(1.05236,0,0,1.05236,-1.15568,-0.100886)">
        <path d="M14.7,6.3C14.321,6.686 14.321,7.314 14.7,7.7L16.3,9.3C16.686,9.679 17.314,9.679 17.7,9.3L21.47,5.53C21.822,6.307 22.004,7.151 22.004,8.004C22.004,11.295 19.295,14.004 16.004,14.004C15.151,14.004 14.307,13.822 13.53,13.47L6.62,20.38C6.222,20.778 5.682,21.001 5.12,21.001C3.956,21.001 2.999,20.044 2.999,18.88C2.999,18.318 3.222,17.778 3.62,17.38L10.53,10.47C10.178,9.693 9.996,8.849 9.996,7.996C9.996,4.705 12.705,1.996 15.996,1.996C16.849,1.996 17.693,2.178 18.47,2.53L14.71,6.29L14.7,6.3Z" style="fill:none;fill-rule:nonzero;stroke:white;stroke-width:1.9px;"/>
    </g>
</svg>
