<?xml version="1.0" encoding="UTF-8" standalone="no"?>
<!DOCTYPE svg PUBLIC "-//W3C//DTD SVG 1.1//EN" "http://www.w3.org/Graphics/SVG/1.1/DTD/svg11.dtd">
<svg width="100%" height="100%" viewBox="0 0 100 100" version="1.1" xmlns="http://www.w3.org/2000/svg" xmlns:xlink="http://www.w3.org/1999/xlink" xml:space="preserve" xmlns:serif="http://www.serif.com/" style="fill-rule:evenodd;clip-rule:evenodd;stroke-linejoin:round;stroke-miterlimit:2;">
    <g id="web-design" transform="matrix(1.11111,0,0,1.11111,0,0)">
        <g id="icon" transform="matrix(1.56162,0,0,1.56162,-23.157,-29.2629)">
            <g id="screen">
                <rect x="39.32" y="60.78" width="8.66" height="7.22" style="fill:rgb(194,194,194);fill-rule:nonzero;"/>
                <rect x="46.98" y="59.78" width="2" height="9.22" style="fill:rgb(76,76,76);fill-rule:nonzero;"/>
                <rect x="38.32" y="59.78" width="2" height="9.22" style="fill:rgb(76,76,76);fill-rule:nonzero;"/>
                <rect x="32.55" y="67" width="22.2" height="2" style="fill:rgb(76,76,76);fill-rule:nonzero;"/>
                <path d="M65.29,28.776C65.29,27.856 64.544,27.11 63.624,27.11L23.666,27.11C22.746,27.11 22,27.856 22,28.776L22,59.114C22,60.034 22.746,60.78 23.666,60.78L63.624,60.78C64.544,60.78 65.29,60.034 65.29,59.114L65.29,28.776Z" style="fill:rgb(112,112,112);"/>
                <rect x="22" y="55.97" width="42.47" height="3.93" style="fill:rgb(225,225,225);fill-rule:nonzero;"/>
                <path d="M62.41,61.78L24.89,61.78C22.76,61.78 21.005,60.03 21,57.9L21,30C21,27.866 22.756,26.11 24.89,26.11L62.41,26.11C64.54,26.115 66.29,27.87 66.29,30L66.29,57.9C66.285,60.026 64.536,61.775 62.41,61.78ZM24.89,28.11C23.853,28.11 23,28.963 23,30L23,57.9C23,58.937 23.853,59.79 24.89,59.79L62.41,59.79C63.447,59.79 64.3,58.937 64.3,57.9L64.3,30C64.3,28.963 63.447,28.11 62.41,28.11L24.89,28.11Z" style="fill:rgb(76,76,76);fill-rule:nonzero;"/>
                <rect x="21" y="54.97" width="45.29" height="2" style="fill:rgb(76,76,76);fill-rule:nonzero;"/>
            </g>
        </g>
        <g transform="matrix(1.56162,0,0,1.56162,-30.9651,-37.071)">
            <path d="M66,36.377C66,36.277 65.96,36.181 65.89,36.11C65.819,36.04 65.723,36 65.623,36C62.095,36 34.905,36 31.377,36C31.277,36 31.181,36.04 31.11,36.11C31.04,36.181 31,36.277 31,36.377C31,37.305 31,39.695 31,40.623C31,40.723 31.04,40.819 31.11,40.89C31.181,40.96 31.277,41 31.377,41C34.905,41 62.095,41 65.623,41C65.723,41 65.819,40.96 65.89,40.89C65.96,40.819 66,40.723 66,40.623C66,39.695 66,37.305 66,36.377Z" style="fill:rgb(235,235,235);fill-opacity:0.57;"/>
        </g>
        <g transform="matrix(0.40156,0,0,4.68486,4.99685,-138.228)">
            <path d="M66,36.126C66,36.092 65.846,36.06 65.571,36.037C65.296,36.013 64.923,36 64.535,36C58.834,36 38.166,36 32.465,36C32.077,36 31.704,36.013 31.429,36.037C31.154,36.06 31,36.092 31,36.126C31,36.82 31,40.18 31,40.874C31,40.908 31.154,40.94 31.429,40.963C31.704,40.987 32.077,41 32.465,41C38.166,41 58.834,41 64.535,41C64.923,41 65.296,40.987 65.571,40.963C65.846,40.94 66,40.908 66,40.874C66,40.18 66,36.82 66,36.126Z" style="fill:rgb(235,235,235);fill-opacity:0.57;"/>
        </g>
        <g transform="matrix(1.03808,0,0,4.68486,3.58861,-138.228)">
            <path d="M66,36.126C66,36.092 65.94,36.06 65.834,36.037C65.728,36.013 65.584,36 65.433,36C61.289,36 35.711,36 31.567,36C31.416,36 31.272,36.013 31.166,36.037C31.06,36.06 31,36.092 31,36.126C31,36.82 31,40.18 31,40.874C31,40.908 31.06,40.94 31.166,40.963C31.272,40.987 31.416,41 31.567,41C35.711,41 61.289,41 65.433,41C65.584,41 65.728,40.987 65.834,40.963C65.94,40.94 66,40.908 66,40.874C66,40.18 66,36.82 66,36.126Z" style="fill:rgb(235,235,235);fill-opacity:0.57;"/>
        </g>
    </g>
</svg>
