<?xml version="1.0" encoding="UTF-8" standalone="no"?>
<!-- Generator: Adobe Illustrator 21.1.0, SVG Export Plug-In . SVG Version: 6.00 Build 0)  -->
<svg id="Layer_1" style="enable-background:new 0 0 2344 2690" xmlns="http://www.w3.org/2000/svg" xml:space="preserve" viewBox="0 0 2344 2690" version="1.1" y="0px" x="0px" xmlns:xlink="http://www.w3.org/1999/xlink">
<style type="text/css">
	.st0{fill:#28111E;}
	.st1{fill:#DB4C9B;}
	.st2{enable-background:new    ;}
	.st3{fill:#DB4B9B;}
</style>
<title>experience-design</title>
	<rect y="50" x="50" height="2590" class="st0" width="2244"/>
	<path class="st1" d="m2244 100v2490h-2144v-2490h2144m100-100h-2344v2690h2344v-2690z"/>
	<g class="st2">
		<path class="st3" d="m1153.6 1722.8h-129.7l-208.8-347.2c-6.3-10.5-13.3-25.5-20.9-44.9h-2.5c-4.2 9.7-11.4 24.7-21.5 44.9l-215.2 347.2h-130.4l303.8-456-279.7-451h130.4l185.4 318.8c12.2 21.1 23 42.2 32.3 63.3h2.5c13.5-27.8 25.3-49.8 35.4-65.8l193-316.3h122.1l-285.4 449.7 289.2 457.3z"/>
		<path class="st3" d="m1830.8 1722.8h-103.8v-110h-2.5c-48.1 83.3-122.3 125-222.8 125-81.4 0-146.5-29-195.2-87s-73.1-136.9-73.1-236.9c0-107.1 27-192.9 81-257.4s125.9-96.8 215.8-96.8c89 0 153.8 34.9 194.3 104.7h2.5v-400.6h103.8v959zm-103.8-293v-95.6c0-52.3-17.3-96.7-51.9-133s-78.5-54.5-131.6-54.5c-63.3 0-113.1 23.2-149.3 69.7s-54.4 110.6-54.4 192.5c0 74.7 17.4 133.7 52.2 177s81.5 64.9 140.2 64.9c57.8 0 104.7-20.9 140.8-62.7s54-94.5 54-158.3z"/>
	</g>
</svg>
