<svg xmlns="http://www.w3.org/2000/svg" viewBox="0 0 100 77.25"><defs><style>.cls-1{isolation:isolate;}.cls-2,.cls-6{fill:#ededed;}.cls-2,.cls-5,.cls-7,.cls-8{stroke:#231f20;stroke-width:0.1px;}.cls-2,.cls-5{stroke-linejoin:round;}.cls-3{opacity:0.1;mix-blend-mode:multiply;}.cls-4{fill:#231f20;}.cls-5{fill:none;}.cls-7{fill:#cd922a;}.cls-7,.cls-8{stroke-miterlimit:10;}.cls-13,.cls-8{fill:#444545;}.cls-9{fill:#f2653e;}.cls-10{fill:#e0c422;}.cls-11{fill:#ffe3a2;}.cls-12{fill:#e2a525;}.cls-14{fill:#18467e;}</style></defs><title>gfxdesign</title><g class="cls-1"><g id="Layer_1" data-name="Layer 1"><polygon class="cls-2" points="88.17 7.89 88.17 45.63 86.15 46.97 85.89 47.14 85.89 47.16 81.82 49.89 81.57 50.04 77.5 52.77 77.24 52.94 73.17 55.67 72.92 55.84 68.83 58.57 68.58 58.74 64.11 61.73 5.26 61.73 5.26 24.5 22.02 24.5 22.02 7.89 88.17 7.89"/><polygon class="cls-2" points="88.17 45.63 88.17 61.73 64.11 61.73 68.58 58.74 68.83 58.57 72.92 55.84 73.17 55.67 77.24 52.94 77.5 52.77 81.57 50.04 81.82 49.89 85.89 47.16 85.89 47.14 86.15 46.97 88.17 45.63"/><g class="cls-3"><polygon class="cls-4" points="22.52 8.39 22.52 25 5.76 25 22.52 8.39"/><polygon class="cls-5" points="22.52 8.39 22.52 25 5.76 25 22.52 8.39"/></g><polygon class="cls-6" points="22.02 7.89 22.02 24.5 5.26 24.5 22.02 7.89"/><polygon class="cls-5" points="22.02 7.89 22.02 24.5 5.26 24.5 22.02 7.89"/><path class="cls-7" d="M86.63,44l-2,1.34-.26.19-4.07,2.73-.25.15L76,51.12l-.26.17L71.62,54l-.25.17-4.09,2.73-.25.17-4.47,3-13,8.73H94.74V38.55Zm3.15,19.66H67.23l5.37-3.56,14-9.32,3.15-2.08Z"/><polygon class="cls-8" points="69.3 59.91 69.05 60.08 67.04 57.09 67.29 56.92 69.3 59.91"/><polygon class="cls-8" points="72.84 55.84 72.58 56.01 71.38 54.19 71.62 54.02 72.84 55.84"/><polygon class="cls-8" points="77.96 54.13 77.7 54.3 75.69 51.29 75.96 51.12 77.96 54.13"/><polygon class="cls-8" points="81.51 50.05 81.26 50.23 80.03 48.39 80.28 48.24 81.51 50.05"/><polygon class="cls-8" points="86.63 48.34 86.37 48.5 84.35 45.51 84.35 45.49 84.61 45.32 86.63 48.34"/><path class="cls-9" d="M15.83,32.05v.82H11.45v-.82c0-.83.5-1.49,1.11-1.49h2.15C15.33,30.56,15.83,31.23,15.83,32.05Z"/><rect class="cls-10" x="11.45" y="33.08" width="4.38" height="2.13"/><polygon class="cls-4" points="12.98 66.68 14.3 66.68 13.64 69.03 12.98 66.68"/><path class="cls-11" d="M13.71,63.79c.69-2.24,1.76-2.45,2.09-2.46l-1.45,5.15H12.93L11.5,61.37a3.08,3.08,0,0,1,2.08,2.41.08.08,0,0,0,.05.07h0A.07.07,0,0,0,13.71,63.79Z"/><path class="cls-12" d="M13.57,35.41V63.2a3.19,3.19,0,0,0-2.11-2V35.41Z"/><path class="cls-12" d="M15.83,61.14c-.31,0-1.38.17-2.12,2.15V35.41h2.12Z"/><path class="cls-13" d="M14.71,30.36H12.57c-.69,0-1.26.77-1.26,1.7V61.24s0,0,0,0l2.25,8.07s0,.08.08.08a.07.07,0,0,0,.06-.08L16,61.27h0s0,0,0,0V32.06C16,31.13,15.41,30.36,14.71,30.36Zm-3.25,1.7c0-.83.49-1.5,1.11-1.5h2.14c.62,0,1.13.66,1.13,1.5v.82H11.46Zm0,1h4.38V35.2H11.46Zm0,2.33h2.11V63.2a3.18,3.18,0,0,0-2.11-2ZM13.65,69,13,66.68H14.3Zm.71-2.54H12.92L11.5,61.36a3.13,3.13,0,0,1,2.07,2.42s0,.06.06.06h0s0,0,.06,0c.69-2.25,1.76-2.45,2.08-2.47Zm1.48-5.34c-.31,0-1.39.17-2.13,2.14V35.4h2.13Z"/><path class="cls-6" d="M32.62,16.76A1.26,1.26,0,0,1,31.35,18a1.24,1.24,0,0,1-1.25-1.25,1.26,1.26,0,0,1,1.25-1.26A1.27,1.27,0,0,1,32.62,16.76Z"/><circle class="cls-6" cx="62.07" cy="16.75" r="2.02"/><path class="cls-14" d="M62.07,19.55a2.8,2.8,0,1,1,2.8-2.8A2.8,2.8,0,0,1,62.07,19.55Zm0-4a1.25,1.25,0,1,0,1.25,1.25A1.25,1.25,0,0,0,62.07,15.5Z"/><path class="cls-14" d="M63,28.12a16.85,16.85,0,0,0-9.19-10.6l7.11,0L60.67,16H49.27V14.17H44.09V16H34a2.79,2.79,0,1,0,0,1.54H39.6a17.1,17.1,0,0,0-9.79,13.23H28.2v4.47h4.47V30.76h-1.3a15.45,15.45,0,0,1,12.71-13v1.57h5.18V17.74A15.33,15.33,0,0,1,61.56,28.57a16.08,16.08,0,0,1,.59,3l1.54-.15A18,18,0,0,0,63,28.12ZM31.35,18a1.24,1.24,0,0,1-1.25-1.25,1.26,1.26,0,0,1,1.25-1.26,1.27,1.27,0,0,1,1.26,1.26A1.26,1.26,0,0,1,31.35,18Zm-.22,15.69H29.75V32.3h1.39Zm16.6-15.9h-2.1V15.71h2.1Z"/><path class="cls-14" d="M65.23,35.24H60.74V30.75h4.48Zm-2.94-1.54h1.4V32.3h-1.4Z"/><path class="cls-14" d="M58.19,38.84,47.33,22a.71.71,0,0,0-.43-.32A.75.75,0,0,0,46,22L35.24,38.83a.78.78,0,0,0,.12,1,28.57,28.57,0,0,1,7.13,12.71h-.14l-1.68,2.21,1.23.94,1.22-1.6h7.19l1.22,1.6,1.23-.94-1.68-2.21h-.14a28.69,28.69,0,0,1,7.13-12.69A.78.78,0,0,0,58.19,38.84ZM46.71,34.59a2.07,2.07,0,1,1-2.07,2.07A2.07,2.07,0,0,1,46.71,34.59ZM49.47,52H44a30.43,30.43,0,0,0-7.08-12.83l9-14.13v8.13a3.6,3.6,0,1,0,1.54,0V25l9.1,14.16A30.34,30.34,0,0,0,49.47,52Z"/></g></g></svg>