<?xml version="1.0" encoding="UTF-8" standalone="no"?>
<!-- Generator: Adobe Illustrator 21.1.0, SVG Export Plug-In . SVG Version: 6.00 Build 0)  -->
<svg id="Layer_1" style="enable-background:new 0 0 2344 2690" xmlns="http://www.w3.org/2000/svg" xml:space="preserve" viewBox="0 0 2344 2690" version="1.1" y="0px" x="0px" xmlns:xlink="http://www.w3.org/1999/xlink">
<style type="text/css">
	.st0{fill:#26170F;}
	.st1{fill:#F47C20;}
	.st2{enable-background:new    ;}
	.st3{fill:none;stroke:#F47C20;stroke-width:100;stroke-miterlimit:10;}
</style>
<title>illustrator</title>
	<rect y="50" x="50" height="2590" class="st0" width="2244"/>
	<path class="st1" d="m2244 100v2490h-2144v-2490h2144m100-100h-2344v2690h2344v-2690z"/>
	<g class="st2">
		<path class="st3" d="m1373.6 1798.6l-103.8-282h-393.6l-103.8 282h-69l342.3-907h59.5l338.6 907h-70.2zm-278.4-759.1c-4.6-12.6-8.4-25.1-11.4-37.3-3-10.5-6.1-21.1-9.5-31.6h-2.5c-7.2 27.8-14.1 50.4-20.9 67.6l-152.5 420.3h349.9l-153.1-419z"/>
		<path class="st3" d="m1613.4 987.5c-12.7 0-23.8-4.6-33.5-13.9s-14.5-21.1-14.5-35.4c0-13.9 5-25.2 14.9-33.8s21-13 33.2-13c13.1 0 24.6 4.2 34.5 12.6s14.9 19.8 14.9 34.1c0 13.5-4.9 25.1-14.6 34.8s-21.4 14.6-34.9 14.6zm-28.4 811.1v-648h58.2v648h-58.2z"/>
	</g>
</svg>
