<svg id="Layer_2" data-name="Layer 2" xmlns="http://www.w3.org/2000/svg" viewBox="0 0 2344 2690"><defs><style>.cls-1{fill:#efde4b;}.cls-2{fill:#231f20;}</style></defs><title>JavaScript</title><rect class="cls-1" width="2344" height="2690"/><path class="cls-2" d="M1484.82,1592.91h200.08v694q0,165.7-26.29,232.53t-86.65,106.31q-60.38,39.46-144.89,39.46-172.61,0-294.05-151.29l143.28-134.23q47.52,54.08,80.86,72.57t64.56,18.49q31.9,0,47.51-27t15.61-118.81Z" transform="translate(-328 -155.22)"/><path class="cls-2" d="M2474,1735.76,2326.59,1866q-77.61-107.91-158.08-107.91-39.2,0-64.1,21t-24.92,47.24q0,26.29,17.77,49.72,24.18,31.24,145.81,134.25,113.81,95.21,138,120,60.43,61.09,85.69,116.85T2492,2369q0,128.56-89,212.39t-232,83.81q-111.75,0-194.65-54.62t-142-171.71l167.29-100.76q75.45,138.25,173.68,138.25,51.24,0,86.13-29.86t34.88-69q0-35.54-26.33-71.09t-115.91-108.78q-170.71-139.33-220.48-215.06t-49.79-151.09q0-108.78,82.93-186.62t204.64-77.86q78.29,0,149.13,36.3T2474,1735.76Z" transform="translate(-328 -155.22)"/></svg>