<?xml version="1.0" encoding="UTF-8" standalone="no"?>
<!-- Generator: Adobe Illustrator 21.1.0, SVG Export Plug-In . SVG Version: 6.00 Build 0)  -->
<svg id="Layer_1" style="enable-background:new 0 0 2344 2690" xmlns="http://www.w3.org/2000/svg" xml:space="preserve" viewBox="0 0 2344 2690" version="1.1" y="0px" x="0px" xmlns:xlink="http://www.w3.org/1999/xlink">
<style type="text/css">
	.st0{fill:#232238;}
	.st1{fill:#4FC8EC;}
	.st2{enable-background:new    ;}
	.st3{fill:#4BC1EC;}
</style>
<title>photoshop</title>
	<rect y="50" x="50" height="2590" class="st0" width="2244"/>
	<path class="st1" d="m2244 100v2490h-2144v-2490h2144m100-100h-2344v2690h2344v-2690z"/>
	<g class="st2">
		<path class="st3" d="m772.4 1379.8v343h-106.3v-907h249.3c97 0 172.2 23.6 225.6 70.8s80.1 113.8 80.1 199.8-29.6 156.4-88.9 211.2-139.3 82.2-240.1 82.2h-119.7zm0-468v372h111.4c73.4 0 129.4-16.8 168-50.3s57.9-80.9 57.9-142c0-119.8-70.9-179.7-212.6-179.7h-124.7z"/>
	</g>
	<g class="st2">
		<path class="st3" d="m1312.8 1699.2v-111.4c56.5 42 118.8 63 186.7 63 91.1 0 136.7-30.5 136.7-91.4 0-17.3-3.9-31.9-11.7-44s-18.4-22.7-31.6-31.9-28.9-17.6-46.8-25-37.2-15.1-57.9-23.1c-28.7-11.4-53.9-22.9-75.6-34.5s-39.9-24.7-54.4-39.2c-14.6-14.5-25.5-31.1-32.9-49.7-7.4-18.5-11.1-40.3-11.1-65.1 0-30.3 7-57.2 20.9-80.6s32.5-43 55.7-58.8 49.7-27.7 79.4-35.7c29.8-8 60.4-12 92.1-12 56.1 0 106.3 9.7 150.6 29.1v104.9c-47.7-31.3-102.5-47-164.5-47-19.4 0-36.9 2.2-52.5 6.7s-29 10.7-40.2 18.7c-11.2 8-19.8 17.7-26 28.9-6.1 11.2-9.2 23.6-9.2 37.1 0 16.9 3 31 9.2 42.4 6.1 11.4 15.1 21.5 26.9 30.4s26.2 16.9 43 24c16.9 7.2 36.1 15 57.6 23.4 28.7 11 54.4 22.2 77.2 33.8s42.2 24.7 58.2 39.2 28.4 31.3 37 50.3 13 41.5 13 67.7c0 32-7.1 59.9-21.2 83.5s-33 43.2-56.6 58.8-50.8 27.2-81.6 34.8c-30.8 7.6-63.1 11.4-96.8 11.4-66.9-0.1-124.7-13-173.6-38.7z"/>
	</g>
</svg>
