<?xml version="1.0" encoding="UTF-8" standalone="no"?>
<!-- Generator: Adobe Illustrator 21.1.0, SVG Export Plug-In . SVG Version: 6.00 Build 0)  -->
<svg id="Layer_1" style="enable-background:new 0 0 100 77.3" xmlns="http://www.w3.org/2000/svg" xml:space="preserve" viewBox="0 0 100 77.3" version="1.1" y="0px" x="0px" xmlns:xlink="http://www.w3.org/1999/xlink">
<style type="text/css">
	.st0{fill:#F4F4F4;stroke:#231F20;stroke-width:0.15;stroke-miterlimit:10;}
	.st1{fill:none;stroke:#231F20;stroke-width:0.15;stroke-miterlimit:10;}
	.st2{fill:#E2E2E2;}
	.st3{fill:#2880BA;}
	.st4{fill:#C03B2B;}
	.st5{opacity:0.48;fill:#E64C3C;enable-background:new    ;}
	.st6{fill:#E57E25;enable-background:new    ;}
	.st7{fill:#14A085;}
	.st8{fill:#DDBF5D;}
	.st9{fill:none;stroke:#FFFFFF;stroke-width:0.15;stroke-miterlimit:10;}
	.st10{fill:#FFFFFF;}
	.st11{opacity:0.48;fill:#25B99A;enable-background:new    ;}
	.st12{opacity:0.48;fill:#F29C1F;}
</style>
	<rect y="13.1" x="5.5" height="51.1" class="st0" width="52.1"/>
	<rect y="15.8" x="7.6" height="25.1" class="st1" width="47.8"/>
	<rect y="49.7" x="7.5" height="11.4" class="st1" width="15.6"/>
	<line y1="40.8" x2="55.4" x1="7.6" y2="15.8" class="st1"/>
	<line y1="15.8" x2="55.4" x1="7.6" y2="40.8" class="st1"/>
	<line y1="49.7" x2="23.1" x1="7.5" y2="61.1" class="st1"/>
	<line y1="61.1" x2="23.1" x1="7.5" y2="49.7" class="st1"/>
	<rect y="49.7" x="23.7" height="11.4" class="st1" width="15.6"/>
	<line y1="49.7" x2="39.3" x1="23.7" y2="61.1" class="st1"/>
	<line y1="61.1" x2="39.3" x1="23.7" y2="49.7" class="st1"/>
	<rect y="49.7" x="40" height="11.4" class="st1" width="15.4"/>
	<line y1="49.7" x2="55.4" x1="40" y2="61.1" class="st1"/>
	<line y1="61.1" x2="55.4" x1="40" y2="49.7" class="st1"/>
	<rect y="43" x="7.6" height="4.9" class="st1" width="47.8"/>
	<line y1="46.6" x2="53.7" x1="9.2" y2="46.6" class="st1"/>
<rect y="7.9" x="23.7" height="61.5" class="st2" width="71.3"/>
<path class="st3" d="m29.2 11.7h60.2c1.3 0 2.4 1.5 2.4 3.1v24.2c0 1.8-1.1 3.1-2.4 3.1h-60.2c-1.3 0-2.4-1.5-2.4-3.1v-24.3c0-1.6 1-3 2.4-3z"/>
<path class="st4" d="m28.1 54.4h16c0.7 0 1.3 0.7 1.3 1.6v8.5c0 0.9-0.6 1.6-1.3 1.6h-16c-0.7 0-1.3-0.7-1.3-1.6v-8.5c0-0.9 0.6-1.6 1.3-1.6z"/>
<path class="st5" d="m28.1 54.4h0.7v11.7h-0.7c-0.7 0-1.4-0.7-1.4-1.8v-8.3c0.2-0.9 0.7-1.6 1.4-1.6z"/>
<path class="st6" d="m51.2 54.4h16.1c0.7 0 1.3 0.7 1.3 1.6v8.6c0 0.9-0.6 1.6-1.3 1.6h-16.1c-0.7 0-1.3-0.7-1.3-1.6v-8.6c0-0.9 0.6-1.6 1.3-1.6z"/>
<path class="st7" d="m74.7 54.4h15.9c0.7 0 1.3 0.7 1.3 1.6v8.5c0 0.9-0.6 1.6-1.3 1.6h-15.9c-0.7 0-1.3-0.7-1.3-1.6v-8.5c0-0.9 0.6-1.6 1.3-1.6z"/>
<path class="st8" d="m29.2 44.6h60.2c1.3 0 2.5 1.3 2.5 3.1 0 1.6-1.1 3.1-2.5 3.1h-60.2c-1.3 0-2.5-1.3-2.5-3.1 0.1-1.6 1.1-3.1 2.5-3.1z"/>
<line y1="49" x2="87.6" x1="30.9" y2="49" class="st9"/>
	<path class="st10" d="m44.7 19.1h-14.4c-0.4 0-0.6-0.3-0.6-0.7s0.2-0.7 0.6-0.7h14.4c0.4 0 0.6 0.3 0.6 0.7s-0.2 0.7-0.6 0.7z"/>
	<path class="st10" d="m53.7 25.4h-23.4c-0.4 0-0.6-0.3-0.6-0.7s0.2-0.7 0.6-0.7h23.4c0.4 0 0.6 0.3 0.6 0.7s-0.3 0.7-0.6 0.7z"/>
	<path class="st10" d="m49.2 31.4h-18.9c-0.4 0-0.6-0.3-0.6-0.7s0.2-0.7 0.6-0.7h18.9c0.4 0 0.6 0.3 0.6 0.7s-0.3 0.7-0.6 0.7z"/>
<path class="st11" d="m74.9 54.4h0.7v11.7h-0.7c-0.7 0-1.5-0.7-1.5-1.8v-8.3c0.1-0.9 0.7-1.6 1.5-1.6z"/>
<path class="st12" d="m51.4 54.4h0.7v11.8h-0.7c-0.7 0-1.5-0.7-1.5-1.8v-8.4c0-0.9 0.7-1.6 1.5-1.6z"/>
</svg>
