<?xml version="1.0" encoding="UTF-8" standalone="no"?>
<!DOCTYPE svg PUBLIC "-//W3C//DTD SVG 1.1//EN" "http://www.w3.org/Graphics/SVG/1.1/DTD/svg11.dtd">
<svg width="100%" height="100%" viewBox="0 0 1280 1280" version="1.1" xmlns="http://www.w3.org/2000/svg" xmlns:xlink="http://www.w3.org/1999/xlink" xml:space="preserve" xmlns:serif="http://www.serif.com/" style="fill-rule:evenodd;clip-rule:evenodd;stroke-linecap:round;stroke-linejoin:round;stroke-miterlimit:1.5;">
    <g transform="matrix(0.554054,0,0,0.554054,-131.797,-28.743)">
        <rect x="505" y="319" width="222" height="222" style="stroke:white;stroke-width:4.97px;"/>
    </g>
    <g transform="matrix(0.554054,0,0,0.554054,-131.797,340.257)">
        <rect x="505" y="319" width="222" height="222" style="stroke:white;stroke-width:4.97px;"/>
    </g>
    <g transform="matrix(0.554054,0,0,0.554054,-254.797,340.257)">
        <rect x="505" y="319" width="222" height="222" style="stroke:white;stroke-width:4.97px;"/>
    </g>
    <g transform="matrix(0.554054,0,0,0.554054,360.202,-28.743)">
        <rect x="505" y="319" width="222" height="222" style="stroke:white;stroke-width:4.97px;"/>
    </g>
    <g transform="matrix(0.554054,0,0,0.554054,360.202,340.257)">
        <rect x="505" y="319" width="222" height="222" style="stroke:white;stroke-width:4.97px;"/>
    </g>
    <g transform="matrix(0.554054,0,0,0.554054,114.203,-28.743)">
        <rect x="505" y="319" width="222" height="222" style="stroke:white;stroke-width:4.97px;"/>
    </g>
    <g transform="matrix(0.554054,0,0,0.554054,606.202,-28.743)">
        <rect x="505" y="319" width="222" height="222" style="stroke:white;stroke-width:4.97px;"/>
    </g>
    <g transform="matrix(0.554054,0,0,0.554054,606.202,340.257)">
        <rect x="505" y="319" width="222" height="222" style="stroke:white;stroke-width:4.97px;"/>
    </g>
    <g transform="matrix(0.554054,0,0,0.554054,-8.79749,-28.743)">
        <rect x="505" y="319" width="222" height="222" style="stroke:white;stroke-width:4.97px;"/>
    </g>
    <g transform="matrix(0.554054,0,0,0.554054,-8.79749,340.257)">
        <rect x="505" y="319" width="222" height="222" style="stroke:white;stroke-width:4.97px;"/>
    </g>
    <g transform="matrix(0.554054,0,0,0.554054,483.202,-28.743)">
        <rect x="505" y="319" width="222" height="222" style="stroke:white;stroke-width:4.97px;"/>
    </g>
    <g transform="matrix(0.554054,0,0,0.554054,237.202,-28.743)">
        <rect x="505" y="319" width="222" height="222" style="stroke:white;stroke-width:4.97px;"/>
    </g>
    <g transform="matrix(0.554054,0,0,0.554054,237.202,340.257)">
        <rect x="505" y="319" width="222" height="222" style="stroke:white;stroke-width:4.97px;"/>
    </g>
    <g transform="matrix(0.554054,0,0,0.554054,729.202,-28.743)">
        <rect x="505" y="319" width="222" height="222" style="stroke:white;stroke-width:4.97px;"/>
    </g>
    <g transform="matrix(0.554054,0,0,0.554054,729.202,340.257)">
        <rect x="505" y="319" width="222" height="222" style="stroke:white;stroke-width:4.97px;"/>
    </g>
    <g transform="matrix(0.554054,0,0,0.554054,-131.797,94.257)">
        <rect x="505" y="319" width="222" height="222" style="stroke:white;stroke-width:4.97px;"/>
    </g>
    <g transform="matrix(0.554054,0,0,0.554054,-254.797,94.257)">
        <rect x="505" y="319" width="222" height="222" style="stroke:white;stroke-width:4.97px;"/>
    </g>
    <g transform="matrix(0.554054,0,0,0.554054,-131.797,463.257)">
        <rect x="505" y="319" width="222" height="222" style="stroke:white;stroke-width:4.97px;"/>
    </g>
    <g transform="matrix(0.554054,0,0,0.554054,-254.797,463.257)">
        <rect x="505" y="319" width="222" height="222" style="stroke:white;stroke-width:4.97px;"/>
    </g>
    <g transform="matrix(0.554054,0,0,0.554054,114.203,94.257)">
        <rect x="505" y="319" width="222" height="222" style="stroke:white;stroke-width:4.97px;"/>
    </g>
    <g transform="matrix(0.554054,0,0,0.554054,606.202,94.257)">
        <rect x="505" y="319" width="222" height="222" style="stroke:white;stroke-width:4.97px;"/>
    </g>
    <g transform="matrix(0.554054,0,0,0.554054,606.202,463.257)">
        <rect x="505" y="319" width="222" height="222" style="stroke:white;stroke-width:4.97px;"/>
    </g>
    <g transform="matrix(0.554054,0,0,0.554054,-8.79749,94.257)">
        <rect x="505" y="319" width="222" height="222" style="stroke:white;stroke-width:4.97px;"/>
    </g>
    <g transform="matrix(0.554054,0,0,0.554054,-8.79749,463.257)">
        <rect x="505" y="319" width="222" height="222" style="stroke:white;stroke-width:4.97px;"/>
    </g>
    <g transform="matrix(0.554054,0,0,0.554054,483.202,94.257)">
        <rect x="505" y="319" width="222" height="222" style="stroke:white;stroke-width:4.97px;"/>
    </g>
    <g transform="matrix(0.554054,0,0,0.554054,729.202,94.257)">
        <rect x="505" y="319" width="222" height="222" style="stroke:white;stroke-width:4.97px;"/>
    </g>
    <g transform="matrix(0.554054,0,0,0.554054,729.202,463.257)">
        <rect x="505" y="319" width="222" height="222" style="stroke:white;stroke-width:4.97px;"/>
    </g>
    <g transform="matrix(0.554054,0,0,0.554054,-131.797,217.257)">
        <rect x="505" y="319" width="222" height="222" style="stroke:white;stroke-width:4.97px;"/>
    </g>
    <g transform="matrix(0.554054,0,0,0.554054,-254.797,217.257)">
        <rect x="505" y="319" width="222" height="222" style="stroke:white;stroke-width:4.97px;"/>
    </g>
    <g transform="matrix(0.554054,0,0,0.554054,-131.797,586.257)">
        <rect x="505" y="319" width="222" height="222" style="stroke:white;stroke-width:4.97px;"/>
    </g>
    <g transform="matrix(0.554054,0,0,0.554054,-254.797,586.257)">
        <rect x="505" y="319" width="222" height="222" style="stroke:white;stroke-width:4.97px;"/>
    </g>
    <g transform="matrix(0.554054,0,0,0.554054,360.202,217.257)">
        <rect x="505" y="319" width="222" height="222" style="stroke:white;stroke-width:4.97px;"/>
    </g>
    <g transform="matrix(0.554054,0,0,0.554054,606.202,217.257)">
        <rect x="505" y="319" width="222" height="222" style="stroke:white;stroke-width:4.97px;"/>
    </g>
    <g transform="matrix(0.554054,0,0,0.554054,606.202,586.257)">
        <rect x="505" y="319" width="222" height="222" style="stroke:white;stroke-width:4.97px;"/>
    </g>
    <g transform="matrix(0.554054,0,0,0.554054,-8.79749,217.257)">
        <rect x="505" y="319" width="222" height="222" style="stroke:white;stroke-width:4.97px;"/>
    </g>
    <g transform="matrix(0.554054,0,0,0.554054,-8.79749,586.257)">
        <rect x="505" y="319" width="222" height="222" style="stroke:white;stroke-width:4.97px;"/>
    </g>
    <g transform="matrix(0.554054,0,0,0.554054,237.202,217.257)">
        <rect x="505" y="319" width="222" height="222" style="stroke:white;stroke-width:4.97px;"/>
    </g>
    <g transform="matrix(0.554054,0,0,0.554054,729.202,217.257)">
        <rect x="505" y="319" width="222" height="222" style="stroke:white;stroke-width:4.97px;"/>
    </g>
    <g transform="matrix(0.554054,0,0,0.554054,729.202,586.257)">
        <rect x="505" y="319" width="222" height="222" style="stroke:white;stroke-width:4.97px;"/>
    </g>
    <g transform="matrix(0.554054,0,0,0.554054,-131.797,709.257)">
        <rect x="505" y="319" width="222" height="222" style="stroke:white;stroke-width:4.97px;"/>
    </g>
    <g transform="matrix(0.554054,0,0,0.554054,-254.797,709.257)">
        <rect x="505" y="319" width="222" height="222" style="stroke:white;stroke-width:4.97px;"/>
    </g>
    <g transform="matrix(0.554054,0,0,0.554054,606.202,709.257)">
        <rect x="505" y="319" width="222" height="222" style="stroke:white;stroke-width:4.97px;"/>
    </g>
    <g transform="matrix(0.554054,0,0,0.554054,-8.79749,709.257)">
        <rect x="505" y="319" width="222" height="222" style="stroke:white;stroke-width:4.97px;"/>
    </g>
    <g transform="matrix(0.554054,0,0,0.554054,729.202,709.257)">
        <rect x="505" y="319" width="222" height="222" style="stroke:white;stroke-width:4.97px;"/>
    </g>
    <g transform="matrix(0.554054,0,0,0.554054,-131.797,832.257)">
        <rect x="505" y="319" width="222" height="222" style="stroke:white;stroke-width:4.97px;"/>
    </g>
    <g transform="matrix(0.554054,0,0,0.554054,360.202,832.257)">
        <rect x="505" y="319" width="222" height="222" style="stroke:white;stroke-width:4.97px;"/>
    </g>
    <g transform="matrix(0.554054,0,0,0.554054,114.203,832.257)">
        <rect x="505" y="319" width="222" height="222" style="stroke:white;stroke-width:4.97px;"/>
    </g>
    <g transform="matrix(0.554054,0,0,0.554054,606.202,832.257)">
        <rect x="505" y="319" width="222" height="222" style="stroke:white;stroke-width:4.97px;"/>
    </g>
    <g transform="matrix(0.554054,0,0,0.554054,-8.79749,832.257)">
        <rect x="505" y="319" width="222" height="222" style="stroke:white;stroke-width:4.97px;"/>
    </g>
    <g transform="matrix(0.554054,0,0,0.554054,483.202,832.257)">
        <rect x="505" y="319" width="222" height="222" style="stroke:white;stroke-width:4.97px;"/>
    </g>
    <g transform="matrix(0.554054,0,0,0.554054,237.202,832.257)">
        <rect x="505" y="319" width="222" height="222" style="stroke:white;stroke-width:4.97px;"/>
    </g>
    <g transform="matrix(0.554054,0,0,0.554054,729.202,832.257)">
        <rect x="505" y="319" width="222" height="222" style="stroke:white;stroke-width:4.97px;"/>
    </g>
    <g transform="matrix(0.554054,0,0,0.554054,852.202,340.257)">
        <rect x="505" y="319" width="222" height="222" style="stroke:white;stroke-width:4.97px;"/>
    </g>
    <g transform="matrix(0.554054,0,0,0.554054,852.202,94.257)">
        <rect x="505" y="319" width="222" height="222" style="stroke:white;stroke-width:4.97px;"/>
    </g>
    <g transform="matrix(0.554054,0,0,0.554054,852.202,463.257)">
        <rect x="505" y="319" width="222" height="222" style="stroke:white;stroke-width:4.97px;"/>
    </g>
    <g transform="matrix(0.554054,0,0,0.554054,852.202,217.257)">
        <rect x="505" y="319" width="222" height="222" style="stroke:white;stroke-width:4.97px;"/>
    </g>
    <g transform="matrix(0.554054,0,0,0.554054,852.202,586.257)">
        <rect x="505" y="319" width="222" height="222" style="stroke:white;stroke-width:4.97px;"/>
    </g>
    <g transform="matrix(0.554054,0,0,0.554054,852.202,709.257)">
        <rect x="505" y="319" width="222" height="222" style="stroke:white;stroke-width:4.97px;"/>
    </g>
    <g transform="matrix(1.7418e-17,-0.554054,0.554054,1.7418e-17,340.257,427.797)">
        <rect x="505" y="319" width="222" height="222" style="stroke:white;stroke-width:4.97px;"/>
    </g>
    <g transform="matrix(1.7418e-17,-0.554054,0.554054,1.7418e-17,94.257,427.797)">
        <rect x="505" y="319" width="222" height="222" style="stroke:white;stroke-width:4.97px;"/>
    </g>
    <g transform="matrix(1.7418e-17,-0.554054,0.554054,1.7418e-17,463.257,427.797)">
        <rect x="505" y="319" width="222" height="222" style="stroke:white;stroke-width:4.97px;"/>
    </g>
    <g transform="matrix(1.7418e-17,-0.554054,0.554054,1.7418e-17,217.257,427.797)">
        <rect x="505" y="319" width="222" height="222" style="stroke:white;stroke-width:4.97px;"/>
    </g>
    <g transform="matrix(1.7418e-17,-0.554054,0.554054,1.7418e-17,586.257,427.797)">
        <rect x="505" y="319" width="222" height="222" style="stroke:white;stroke-width:4.97px;"/>
    </g>
    <g transform="matrix(1.7418e-17,-0.554054,0.554054,1.7418e-17,709.257,427.797)">
        <rect x="505" y="319" width="222" height="222" style="stroke:white;stroke-width:4.97px;"/>
    </g>
    <g transform="matrix(-1.01778e-16,0.554054,-0.554054,-1.01778e-16,939.743,852.203)">
        <rect x="505" y="319" width="222" height="222" style="stroke:white;stroke-width:4.97px;"/>
    </g>
    <g transform="matrix(-1.01778e-16,0.554054,-0.554054,-1.01778e-16,1185.74,852.203)">
        <rect x="505" y="319" width="222" height="222" style="stroke:white;stroke-width:4.97px;"/>
    </g>
    <g transform="matrix(-1.01778e-16,0.554054,-0.554054,-1.01778e-16,816.743,852.203)">
        <rect x="505" y="319" width="222" height="222" style="stroke:white;stroke-width:4.97px;"/>
    </g>
    <g transform="matrix(-1.01778e-16,0.554054,-0.554054,-1.01778e-16,1062.74,852.203)">
        <rect x="505" y="319" width="222" height="222" style="stroke:white;stroke-width:4.97px;"/>
    </g>
    <g transform="matrix(-1.01778e-16,0.554054,-0.554054,-1.01778e-16,693.743,852.203)">
        <rect x="505" y="319" width="222" height="222" style="stroke:white;stroke-width:4.97px;"/>
    </g>
    <g transform="matrix(-1.01778e-16,0.554054,-0.554054,-1.01778e-16,570.743,852.203)">
        <rect x="505" y="319" width="222" height="222" style="stroke:white;stroke-width:4.97px;"/>
    </g>
    <g transform="matrix(0.554054,0,0,0.554054,114.203,340.257)">
        <rect x="505" y="319" width="222" height="222" style="fill:rgb(236,240,241);stroke:white;stroke-width:4.97px;"/>
    </g>
    <g transform="matrix(0.554054,0,0,0.554054,483.202,340.257)">
        <rect x="505" y="319" width="222" height="222" style="fill:rgb(236,240,241);stroke:white;stroke-width:4.97px;"/>
    </g>
    <g transform="matrix(0.554054,0,0,0.554054,360.202,94.257)">
        <rect x="505" y="319" width="222" height="222" style="fill:rgb(236,240,241);stroke:white;stroke-width:4.97px;"/>
    </g>
    <g transform="matrix(0.554054,0,0,0.554054,237.202,94.257)">
        <rect x="505" y="319" width="222" height="222" style="fill:rgb(236,240,241);stroke:white;stroke-width:4.97px;"/>
    </g>
    <g transform="matrix(0.554054,0,0,0.554054,114.203,217.257)">
        <rect x="505" y="319" width="222" height="222" style="fill:rgb(236,240,241);stroke:white;stroke-width:4.97px;"/>
    </g>
    <g transform="matrix(0.554054,0,0,0.554054,483.202,217.257)">
        <rect x="505" y="319" width="222" height="222" style="fill:rgb(236,240,241);stroke:white;stroke-width:4.97px;"/>
    </g>
    <g transform="matrix(0.277027,0,0,0.277027,315.602,244.129)">
        <rect x="505" y="319" width="222" height="222" style="fill:rgb(236,240,241);stroke:white;stroke-width:9.93px;"/>
    </g>
    <g transform="matrix(0.277027,0,0,0.277027,623.102,244.129)">
        <rect x="505" y="319" width="222" height="222" style="fill:rgb(236,240,241);stroke:white;stroke-width:9.93px;"/>
    </g>
    <g transform="matrix(0.277027,0,0,0.277027,561.602,305.629)">
        <rect x="505" y="319" width="222" height="222" style="fill:rgb(236,240,241);stroke:white;stroke-width:9.93px;"/>
    </g>
    <g transform="matrix(0.277027,0,0,0.277027,377.102,305.629)">
        <rect x="505" y="319" width="222" height="222" style="fill:rgb(236,240,241);stroke:white;stroke-width:9.93px;"/>
    </g>
    <g transform="matrix(2.5102,0,0,2.5102,-966.53,-419.306)">
        <rect x="517.5" y="422" width="73.5" height="49" style="fill:rgb(241,196,15);stroke:white;stroke-width:1.1px;"/>
    </g>
    <g transform="matrix(2.5102,0,0,2.5102,-966.53,-419.306)">
        <rect x="689" y="422" width="73.5" height="49" style="fill:rgb(241,196,15);stroke:white;stroke-width:1.1px;"/>
    </g>
    <g transform="matrix(2.5102,0,0,2.5102,-966.53,-419.306)">
        <rect x="517.5" y="471" width="73.5" height="49" style="fill:rgb(241,196,15);stroke:white;stroke-width:1.1px;"/>
    </g>
    <g transform="matrix(2.5102,0,0,2.5102,-966.53,-419.306)">
        <rect x="689" y="471" width="73.5" height="49" style="fill:rgb(241,196,15);stroke:white;stroke-width:1.1px;"/>
    </g>
    <g transform="matrix(0.554054,0,0,0.554054,360.202,463.257)">
        <rect x="505" y="319" width="222" height="222" style="fill:rgb(241,196,15);stroke:white;stroke-width:4.97px;"/>
    </g>
    <g transform="matrix(0.554054,0,0,0.554054,237.202,586.257)">
        <rect x="505" y="319" width="222" height="222" style="fill:rgb(241,196,15);stroke:white;stroke-width:4.97px;"/>
    </g>
    <g transform="matrix(0.554054,0,0,0.554054,360.202,709.257)">
        <rect x="505" y="319" width="222" height="222" style="fill:rgb(241,196,15);stroke:white;stroke-width:4.97px;"/>
    </g>
    <g transform="matrix(2.5102,0,0,2.5102,-966.53,-419.306)">
        <rect x="517.5" y="520" width="73.5" height="49" style="fill:rgb(241,196,15);stroke:white;stroke-width:1.1px;"/>
    </g>
    <g transform="matrix(2.5102,0,0,2.5102,-966.53,-419.306)">
        <rect x="689" y="520" width="73.5" height="49" style="fill:rgb(241,196,15);stroke:white;stroke-width:1.1px;"/>
    </g>
    <g transform="matrix(0.554054,0,0,0.554054,237.202,709.257)">
        <rect x="505" y="319" width="222" height="222" style="fill:rgb(241,196,15);stroke:white;stroke-width:4.97px;"/>
    </g>
    <g transform="matrix(0.554054,0,0,0.554054,237.202,463.257)">
        <rect x="505" y="319" width="222" height="222" style="fill:rgb(241,196,15);stroke:white;stroke-width:4.97px;"/>
    </g>
    <g transform="matrix(0.554054,0,0,0.554054,360.202,586.257)">
        <rect x="505" y="319" width="222" height="222" style="fill:rgb(241,196,15);stroke:white;stroke-width:4.97px;"/>
    </g>
</svg>
