<svg id="Layer_1" data-name="Layer 1" xmlns="http://www.w3.org/2000/svg" viewBox="0 0 318.28 456.05"><defs><style>.cls-1{fill:#965ba5;}.cls-2{fill:#894b9d;}</style></defs><title>Newsfeed</title><path class="cls-1" d="M352.86,296V673.41a12,12,0,0,0,20.43,8.46l189.8-189.8a12,12,0,0,0,0-17L373.24,287.46A12,12,0,0,0,352.86,296Z" transform="translate(-352.86 -283.98)"/><path class="cls-2" d="M671.14,297.6V726.4A13.59,13.59,0,0,1,647.93,736L432.3,520.38a13.6,13.6,0,0,1,.05-19.28L648,287.93A13.6,13.6,0,0,1,671.14,297.6Z" transform="translate(-352.86 -283.98)"/></svg>