<svg width="62" height="5" viewBox="0 0 62 5" fill="none" xmlns="http://www.w3.org/2000/svg">
<path d="M12.25 2.5V2.5C13.1875 3.75 15.0625 3.75 16 2.5V2.5" stroke="#4ADE80" stroke-width="1.5" stroke-linecap="round" stroke-linejoin="round"/>
<path d="M4.75 2.5V2.5C5.6875 3.75 7.5625 3.75 8.5 2.5V2.5" stroke="#4ADE80" stroke-width="1.5" stroke-linecap="round" stroke-linejoin="round"/>
<path d="M12.25 2.5V2.5C11.3125 1.25 9.4375 1.25 8.5 2.5V2.5" stroke="#4ADE80" stroke-width="1.5" stroke-linecap="round" stroke-linejoin="round"/>
<path d="M4.75 2.5V2.5C3.8125 1.25 1.9375 1.25 0.999999 2.5V2.5" stroke="#4ADE80" stroke-width="1.5" stroke-linecap="round" stroke-linejoin="round"/>
<path d="M27.25 2.5V2.5C28.1875 3.75 30.0625 3.75 31 2.5V2.5" stroke="#4ADE80" stroke-width="1.5" stroke-linecap="round" stroke-linejoin="round"/>
<path d="M19.75 2.5V2.5C20.6875 3.75 22.5625 3.75 23.5 2.5V2.5" stroke="#4ADE80" stroke-width="1.5" stroke-linecap="round" stroke-linejoin="round"/>
<path d="M27.25 2.5V2.5C26.3125 1.25 24.4375 1.25 23.5 2.5V2.5" stroke="#4ADE80" stroke-width="1.5" stroke-linecap="round" stroke-linejoin="round"/>
<path d="M19.75 2.5V2.5C18.8125 1.25 16.9375 1.25 16 2.5V2.5" stroke="#4ADE80" stroke-width="1.5" stroke-linecap="round" stroke-linejoin="round"/>
<path d="M42.25 2.5V2.5C43.1875 3.75 45.0625 3.75 46 2.5V2.5" stroke="#4ADE80" stroke-width="1.5" stroke-linecap="round" stroke-linejoin="round"/>
<path d="M34.75 2.5V2.5C35.6875 3.75 37.5625 3.75 38.5 2.5V2.5" stroke="#4ADE80" stroke-width="1.5" stroke-linecap="round" stroke-linejoin="round"/>
<path d="M42.25 2.5V2.5C41.3125 1.25 39.4375 1.25 38.5 2.5V2.5" stroke="#4ADE80" stroke-width="1.5" stroke-linecap="round" stroke-linejoin="round"/>
<path d="M34.75 2.5V2.5C33.8125 1.25 31.9375 1.25 31 2.5V2.5" stroke="#4ADE80" stroke-width="1.5" stroke-linecap="round" stroke-linejoin="round"/>
<path d="M57.25 2.5V2.5C58.1875 3.75 60.0625 3.75 61 2.5V2.5" stroke="#4ADE80" stroke-width="1.5" stroke-linecap="round" stroke-linejoin="round"/>
<path d="M49.75 2.5V2.5C50.6875 3.75 52.5625 3.75 53.5 2.5V2.5" stroke="#4ADE80" stroke-width="1.5" stroke-linecap="round" stroke-linejoin="round"/>
<path d="M57.25 2.5V2.5C56.3125 1.25 54.4375 1.25 53.5 2.5V2.5" stroke="#4ADE80" stroke-width="1.5" stroke-linecap="round" stroke-linejoin="round"/>
<path d="M49.75 2.5V2.5C48.8125 1.25 46.9375 1.25 46 2.5V2.5" stroke="#4ADE80" stroke-width="1.5" stroke-linecap="round" stroke-linejoin="round"/>
</svg>
